G04 EasyPC Gerber Version 21.0.3 Build 4286 *
G04 #@! TF.Part,Single*
G04 #@! TF.FileFunction,Soldermask,Bot *
G04 #@! TF.FilePolarity,Negative *
%FSLAX35Y35*%
%MOIN*%
G04 #@! TA.AperFunction,SMDPad*
%ADD29R,0.03200X0.05000*%
G04 #@! TA.AperFunction,ComponentPad*
%ADD25R,0.07000X0.07000*%
%ADD27C,0.06634*%
%ADD26C,0.07000*%
%ADD72C,0.08874*%
G04 #@! TA.AperFunction,WasherPad*
%ADD24C,0.10055*%
%ADD23C,0.13795*%
G04 #@! TA.AperFunction,ComponentPad*
%ADD28C,0.14583*%
%ADD73C,0.14780*%
%ADD74R,0.09000X0.07000*%
X0Y0D02*
D02*
D23*
X15703Y53301D03*
Y171411D03*
X335191Y53301D03*
Y160388D03*
D02*
D24*
X15801Y112061D03*
X335093Y80565D03*
D02*
D25*
X43557Y148715D03*
Y158715D03*
Y183833D03*
Y193833D03*
Y203833D03*
Y213833D03*
X75053Y193833D03*
Y203833D03*
Y213833D03*
D02*
D26*
X138045Y103596D03*
X178045D03*
X178163Y198085D03*
X193163D03*
X206785Y121156D03*
X216785Y131156D03*
X224030Y154778D03*
Y194148D03*
X224659Y174463D03*
X226785Y121156D03*
X264030Y154778D03*
Y194148D03*
X264659Y174463D03*
X291589Y198085D03*
X306589D03*
D02*
D27*
X78006Y63478D03*
Y71352D03*
X87848Y63478D03*
Y71352D03*
D02*
D28*
X59226Y52809D03*
X106628D03*
D02*
D29*
X299463Y20919D03*
D02*
D72*
X193163Y51431D03*
Y83911D03*
X249266Y51431D03*
Y83911D03*
X305368Y51431D03*
Y83911D03*
D02*
D73*
X157730Y68163D03*
X315211D03*
D02*
D74*
X138045Y44541D03*
Y54541D03*
X0Y0D02*
M02*
