G04 EasyPC Gerber Version 21.0.3 Build 4286 *
G04 #@! TF.Part,Single*
G04 #@! TF.FileFunction,Drillmap *
G04 #@! TF.FilePolarity,Positive *
%FSLAX35Y35*%
%MOIN*%
%ADD10C,0.00500*%
%ADD22C,0.10000*%
X0Y0D02*
D02*
D10*
X25703Y59239D02*
X27265Y62989D01*
X28828Y59239*
X26328Y60801D02*
X28203D01*
X25703Y177349D02*
X27265Y181099D01*
X28828Y177349*
X26328Y178911D02*
X28203D01*
X27989Y119874D02*
X28614Y119561D01*
X28926Y118936*
X28614Y118311*
X27989Y117998*
X25801*
Y121748*
X27989*
X28614Y121436*
X28926Y120811*
X28614Y120186*
X27989Y119874*
X25801*
X56682Y155277D02*
X56370Y154965D01*
X55744Y154652*
X54807*
X54182Y154965*
X53870Y155277*
X53557Y155902*
Y157152*
X53870Y157777*
X54182Y158090*
X54807Y158402*
X55744*
X56370Y158090*
X56682Y157777*
Y165277D02*
X56370Y164965D01*
X55744Y164652*
X54807*
X54182Y164965*
X53870Y165277*
X53557Y165902*
Y167152*
X53870Y167777*
X54182Y168090*
X54807Y168402*
X55744*
X56370Y168090*
X56682Y167777*
Y190395D02*
X56370Y190083D01*
X55744Y189770*
X54807*
X54182Y190083*
X53870Y190395*
X53557Y191020*
Y192270*
X53870Y192895*
X54182Y193208*
X54807Y193520*
X55744*
X56370Y193208*
X56682Y192895*
Y200395D02*
X56370Y200083D01*
X55744Y199770*
X54807*
X54182Y200083*
X53870Y200395*
X53557Y201020*
Y202270*
X53870Y202895*
X54182Y203208*
X54807Y203520*
X55744*
X56370Y203208*
X56682Y202895*
Y210395D02*
X56370Y210083D01*
X55744Y209770*
X54807*
X54182Y210083*
X53870Y210395*
X53557Y211020*
Y212270*
X53870Y212895*
X54182Y213208*
X54807Y213520*
X55744*
X56370Y213208*
X56682Y212895*
Y220395D02*
X56370Y220083D01*
X55744Y219770*
X54807*
X54182Y220083*
X53870Y220395*
X53557Y221020*
Y222270*
X53870Y222895*
X54182Y223208*
X54807Y223520*
X55744*
X56370Y223208*
X56682Y222895*
X69226Y58746D02*
Y62496D01*
X72352*
X71726Y60622D02*
X69226D01*
X88178Y200395D02*
X87866Y200083D01*
X87241Y199770*
X86303*
X85678Y200083*
X85366Y200395*
X85053Y201020*
Y202270*
X85366Y202895*
X85678Y203208*
X86303Y203520*
X87241*
X87866Y203208*
X88178Y202895*
Y210395D02*
X87866Y210083D01*
X87241Y209770*
X86303*
X85678Y210083*
X85366Y210395*
X85053Y211020*
Y212270*
X85366Y212895*
X85678Y213208*
X86303Y213520*
X87241*
X87866Y213208*
X88178Y212895*
Y220395D02*
X87866Y220083D01*
X87241Y219770*
X86303*
X85678Y220083*
X85366Y220395*
X85053Y221020*
Y222270*
X85366Y222895*
X85678Y223208*
X86303Y223520*
X87241*
X87866Y223208*
X88178Y222895*
X88006Y69416D02*
Y73166D01*
X91131*
X90506Y71291D02*
X88006D01*
Y69416D02*
X91131D01*
X88006Y77290D02*
Y81040D01*
X91131*
X90506Y79165D02*
X88006D01*
Y77290D02*
X91131D01*
X97848Y69416D02*
Y73166D01*
X100974*
X100348Y71291D02*
X97848D01*
Y69416D02*
X100974D01*
X97848Y77290D02*
Y81040D01*
X100974*
X100348Y79165D02*
X97848D01*
Y77290D02*
X100974D01*
X116628Y58746D02*
Y62496D01*
X119753*
X119128Y60622D02*
X116628D01*
X148983Y50479D02*
X150233D01*
X149608D02*
Y54229D01*
X148983D02*
X150233D01*
X148983Y60479D02*
X150233D01*
X149608D02*
Y64229D01*
X148983D02*
X150233D01*
X148045Y109534D02*
Y113284D01*
X149920*
X150545Y112972*
X150858Y112659*
X151170Y112034*
Y110784*
X150858Y110159*
X150545Y109846*
X149920Y109534*
X148045*
X167730Y74101D02*
Y77851D01*
Y75976D02*
X170856D01*
Y74101D02*
Y77851D01*
X188045Y109534D02*
Y113284D01*
X189920*
X190545Y112972*
X190858Y112659*
X191170Y112034*
Y110784*
X190858Y110159*
X190545Y109846*
X189920Y109534*
X188045*
X188163Y204022D02*
Y207772D01*
X190039*
X190663Y207460*
X190976Y207147*
X191289Y206522*
Y205272*
X190976Y204647*
X190663Y204335*
X190039Y204022*
X188163*
X205351Y58931D02*
X206289D01*
Y58619*
X205976Y57994*
X205663Y57681*
X205039Y57369*
X204413*
X203789Y57681*
X203476Y57994*
X203163Y58619*
Y59869*
X203476Y60494*
X203789Y60806*
X204413Y61119*
X205039*
X205663Y60806*
X205976Y60494*
X206289Y59869*
X205351Y91411D02*
X206289D01*
Y91099*
X205976Y90474*
X205663Y90161*
X205039Y89849*
X204413*
X203789Y90161*
X203476Y90474*
X203163Y91099*
Y92349*
X203476Y92974*
X203789Y93287*
X204413Y93599*
X205039*
X205663Y93287*
X205976Y92974*
X206289Y92349*
X203163Y204022D02*
Y207772D01*
X205039*
X205663Y207460*
X205976Y207147*
X206289Y206522*
Y205272*
X205976Y204647*
X205663Y204335*
X205039Y204022*
X203163*
X216785Y127093D02*
Y130843D01*
X218661*
X219285Y130531*
X219598Y130218*
X219911Y129593*
Y128343*
X219598Y127718*
X219285Y127406*
X218661Y127093*
X216785*
X226785Y137093D02*
Y140843D01*
X228661*
X229285Y140531*
X229598Y140218*
X229911Y139593*
Y138343*
X229598Y137718*
X229285Y137406*
X228661Y137093*
X226785*
X234030Y160715D02*
Y164465D01*
X235905*
X236530Y164153*
X236842Y163840*
X237155Y163215*
Y161965*
X236842Y161340*
X236530Y161028*
X235905Y160715*
X234030*
Y200085D02*
Y203835D01*
X235905*
X236530Y203523*
X236842Y203210*
X237155Y202585*
Y201335*
X236842Y200710*
X236530Y200398*
X235905Y200085*
X234030*
X234659Y180400D02*
Y184150D01*
X236535*
X237159Y183838*
X237472Y183525*
X237785Y182900*
Y181650*
X237472Y181025*
X237159Y180713*
X236535Y180400*
X234659*
X236785Y127093D02*
Y130843D01*
X238661*
X239285Y130531*
X239598Y130218*
X239911Y129593*
Y128343*
X239598Y127718*
X239285Y127406*
X238661Y127093*
X236785*
X261453Y58931D02*
X262391D01*
Y58619*
X262078Y57994*
X261766Y57681*
X261141Y57369*
X260516*
X259891Y57681*
X259578Y57994*
X259266Y58619*
Y59869*
X259578Y60494*
X259891Y60806*
X260516Y61119*
X261141*
X261766Y60806*
X262078Y60494*
X262391Y59869*
X261453Y91411D02*
X262391D01*
Y91099*
X262078Y90474*
X261766Y90161*
X261141Y89849*
X260516*
X259891Y90161*
X259578Y90474*
X259266Y91099*
Y92349*
X259578Y92974*
X259891Y93287*
X260516Y93599*
X261141*
X261766Y93287*
X262078Y92974*
X262391Y92349*
X274030Y160715D02*
Y164465D01*
X275905*
X276530Y164153*
X276842Y163840*
X277155Y163215*
Y161965*
X276842Y161340*
X276530Y161028*
X275905Y160715*
X274030*
Y200085D02*
Y203835D01*
X275905*
X276530Y203523*
X276842Y203210*
X277155Y202585*
Y201335*
X276842Y200710*
X276530Y200398*
X275905Y200085*
X274030*
X274659Y180400D02*
Y184150D01*
X276535*
X277159Y183838*
X277472Y183525*
X277785Y182900*
Y181650*
X277472Y181025*
X277159Y180713*
X276535Y180400*
X274659*
X301589Y204022D02*
Y207772D01*
X303464*
X304089Y207460*
X304401Y207147*
X304714Y206522*
Y205272*
X304401Y204647*
X304089Y204335*
X303464Y204022*
X301589*
X317556Y58931D02*
X318493D01*
Y58619*
X318181Y57994*
X317868Y57681*
X317243Y57369*
X316618*
X315993Y57681*
X315681Y57994*
X315368Y58619*
Y59869*
X315681Y60494*
X315993Y60806*
X316618Y61119*
X317243*
X317868Y60806*
X318181Y60494*
X318493Y59869*
X317556Y91411D02*
X318493D01*
Y91099*
X318181Y90474*
X317868Y90161*
X317243Y89849*
X316618*
X315993Y90161*
X315681Y90474*
X315368Y91099*
Y92349*
X315681Y92974*
X315993Y93287*
X316618Y93599*
X317243*
X317868Y93287*
X318181Y92974*
X318493Y92349*
X316589Y204022D02*
Y207772D01*
X318464*
X319089Y207460*
X319401Y207147*
X319714Y206522*
Y205272*
X319401Y204647*
X319089Y204335*
X318464Y204022*
X316589*
X325211Y74101D02*
Y77851D01*
Y75976D02*
X328336D01*
Y74101D02*
Y77851D01*
X347280Y88378D02*
X347905Y88065D01*
X348218Y87440*
X347905Y86815*
X347280Y86502*
X345093*
Y90252*
X347280*
X347905Y89940*
X348218Y89315*
X347905Y88690*
X347280Y88378*
X345093*
X345191Y59239D02*
X346754Y62989D01*
X348316Y59239*
X345816Y60801D02*
X347691D01*
X345191Y166325D02*
X346754Y170075D01*
X348316Y166325*
X345816Y167888D02*
X347691D01*
D02*
D22*
X15703Y53301D03*
Y171411D03*
X15801Y112061D03*
X43557Y148715D03*
Y158715D03*
Y183833D03*
Y193833D03*
Y203833D03*
Y213833D03*
X59226Y52809D03*
X75053Y193833D03*
Y203833D03*
Y213833D03*
X78006Y63478D03*
Y71352D03*
X87848Y63478D03*
Y71352D03*
X106628Y52809D03*
X138045Y44541D03*
Y54541D03*
Y103596D03*
X157730Y68163D03*
X178045Y103596D03*
X178163Y198085D03*
X193163Y51431D03*
Y83911D03*
Y198085D03*
X206785Y121156D03*
X216785Y131156D03*
X224030Y154778D03*
Y194148D03*
X224659Y174463D03*
X226785Y121156D03*
X249266Y51431D03*
Y83911D03*
X264030Y154778D03*
Y194148D03*
X264659Y174463D03*
X291589Y198085D03*
X305368Y51431D03*
Y83911D03*
X306589Y198085D03*
X315211Y68163D03*
X335093Y80565D03*
X335191Y53301D03*
Y160388D03*
X0Y0D02*
M02*
